<svg id="Layer_1" xmlns="http://www.w3.org/2000/svg" viewBox="0 0 830.5 328.2"><style>.st0{fill:#B2876F;}</style><path class="st0" d="M520.6 158.8c-.9 1.2-1.7 2.5-2.4 4-1.5 3.2-2.3 6.6-2.3 10.4 0 3.8.6 7.4 1.7 10.9s2.7 6.5 4.9 9.2c2.2 2.6 4.9 4.8 8.1 6.3 3.2 1.6 6.9 2.4 11.1 2.4 1.6 0 3-.1 4.2-.3l1.3 1.3c-5 2.3-10.4 3.4-16 3.4-3.8 0-7.3-.6-10.5-1.7s-6-2.7-8.4-4.8c-2.4-2.1-4.2-4.5-5.5-7.4-1.3-2.9-2-6-2-9.4 0-5.9 1.7-11.1 5-15.7 2.6-3.6 6-6.9 10.4-10.1l.4 1.5zM563.1 186.9c4.1-9.2 4.6-18.2 4.6-25.8h-.9c0 7.3-.5 16-4.3 24.8.2.4.4.7.6 1"/><path class="st0" d="M536.5 147.9c1.1 3.5 2.5 7.1 4.3 10.8 1.7 3.7 3.7 7.4 5.8 11.2 2.1 3.7 4.4 7.4 6.7 11 2.3 3.6 4.6 7 6.8 10.2l.6.9c.5.8.8 1.3 1.1 1.6.2.3.6.9 1.1 1.6 1.3 2 3 3.6 4.9 5 1.9 1.4 3.7 2 5.4 2 .6 0 1.3-.1 1.9-.3 1.4-.5 2.6-1.3 3.6-2.3.9-1 1.6-2.1 2-3.2l.7.6c-.6 1.5-1.6 2.8-2.8 4-1.3 1.1-2.7 2.1-4.3 2.8-1.6.8-3.3 1.3-5 1.8-1.8.4-3.5.6-5.3.6-4.5 0-8.8-1.8-12.8-5.4 0 0-3-3.1-4.1-4.4-1.1-1.4-2.2-2.9-3.3-4.8-1.7-2.7-3.6-5.6-5.4-8.7-1.9-3.1-3.7-6.1-5.4-9.2-1.7-3.1-3.4-6.2-4.9-9.3-1.5-3.1-4-9.9-4-9.9-1.3-4.1-2-7.7-2-11 0-3.2.4-6.2 1.3-8.8.9-2.6 2-4.9 3.5-6.7 1.5-1.8 3.2-3.3 5.3-4.2 2.1-1 4.3-1.5 6.6-1.5 4 0 6.8.9 8.4 2.7 1.6 1.8 2.4 4.2 2.4 7.2 0 2.7-1.1 5.5-3.3 8.3-1.4 1.9-3.4 3.6-5.7 5.3l-.3-1c1.9-1.4 3.6-2.8 5-4.4 2.3-2.6 3.4-5.3 3.4-8.1 0-2.6-.7-4.7-2-6.2s-3.2-2.3-5.4-2.3c-2.1 0-3.8.9-5.1 2.5-1.3 1.7-2 4.4-2 8 0 4 .7 8.3 2.1 12.9l.2.7zM112 327.3c-3.4-.6-6.3-1.8-8.8-4-5.9-5.4-8.8-14.1-8.8-36.7 0-19.8 2.9-31.3 8.8-36.8 2.5-2.2 5.5-3.4 8.8-3.9v-.9c-19.7 2.7-33.5 20.9-33.5 41.7 0 21.3 14.7 38.9 33.5 41.5v-.9zM122 245v.9c3.4.5 6.4 1.7 9 3.9 5.9 5.5 8.7 17 8.7 36.8 0 22.6-2.8 31.3-8.7 36.7-2.6 2.2-5.5 3.5-9 4v.8c18.9-2.7 33.5-20.2 33.5-41.5 0-21.4-14.5-38.9-33.5-41.6M221.9 246.5v.9h11.9l-19.3 54.7.4 1.2 19.9-55.9h11v-.9zM205 328.2l-35.7-80.8h-10.1v-.9h38.4v.9h-13l28 62.4-6.6 18.4zM301.3 300v-29.1h-.9c0 7.8-5.9 14.1-15.3 14.1h-4.3v-38.5H255v.9H266.2v78.2H255v.9h25.8v-40.6h4.3c9.4 0 15.3 6.4 15.3 14.1h.9zM323 301.9h-1c0 11.6-7.8 23.7-27.2 23.7h-4v.9H323v-24.6zM316.7 268.9h-.9c0-10.5-6.5-21.4-21.3-21.4h-3.6v-.9h25.9v22.3zM38.2 326.5v-.9h3.2c17.9 0 24.9-13.2 24.9-24.7h.8v25.6H38.2zM0 246.5v.9h11.1v78.2H0v.9h25.8v-79.1h11.1v-.9zM0 81.6v-.9h11.1V2.5H0v-.9h25.8v79.1h11.1v.9zM373.6 246.5h-2.1v.9h2.1c5.3 0 10.1 1 13.8 4.2 6 5.2 8.8 16.2 8.8 35 0 21.6-2.8 29.7-8.8 35-3.7 3.1-8.5 4.1-13.8 4.1h-2.1v.9h2.1c21.1 0 38.4-17.9 38.4-40s-17.3-40.1-38.4-40.1M335.7 246.5v.9h11.1v78.2h-11.1v.9h25.7v-80zM353 177.6v-29.1h-.9c0 7.8-5.9 14.1-15.3 14.1h-4.3v-38.5h-25.8v.9H317.8v78.2h-11.2v.9h25.8v-40.6h4.3c9.4 0 15.3 6.4 15.3 14.1h1zM374.7 179.5h-.9c0 11.6-7.8 23.7-27.2 23.7h-4v.9h32.2v-24.6zM368.5 146.5h-.9c0-10.5-6.5-21.4-21.3-21.4h-3.6v-.9h25.9v22.3zM35 204.9c-3.4-.6-6.4-1.8-8.8-4-5.9-5.4-8.8-14.1-8.8-36.7 0-19.8 2.9-31.3 8.8-36.8 2.5-2.2 5.5-3.4 8.8-3.9v-.9c-19.7 2.7-33.5 20.9-33.5 41.7 0 21.3 14.7 38.9 33.5 41.5v-.9zM45.1 122.6v.9c3.4.5 6.4 1.7 9 3.9 5.9 5.5 8.7 17 8.7 36.8 0 22.6-2.8 31.3-8.7 36.7-2.6 2.2-5.5 3.5-9 4v.8c18.9-2.7 33.5-20.2 33.5-41.5 0-21.4-14.6-39-33.5-41.6M425.3 124.1h-2.1v.9h2.1c5.3 0 10.1 1 13.8 4.2 6 5.2 8.8 16.2 8.8 35 0 21.6-2.8 29.7-8.8 35-3.7 3.1-8.5 4.1-13.8 4.1h-2.1v.9h2.1c21.1 0 38.4-17.9 38.4-40 .1-22.1-17.3-40.1-38.4-40.1M126.4 205.8l6.8-18.9L108 125h11.4v-.9H80.8v.9h11.5l33.1 80.8zM186.9 124.1v.9h11.9l-19.3 54.7.4 1.2 19.9-55.9h11v-.9zM170 205.8L139 125h-10.1v-.9h38.4v.9h-13l23.3 62.4-6.6 18.4z"/><path class="st0" d="M144.7 152.2l-9.7 27.4.4 1 9.7-27.2zM387.5 124.1v.9h11.1v78.2h-11.1v.9h25.7v-80zM115.9 82.6c-3.4-.6-6.4-1.8-8.8-4-5.9-5.4-8.8-14.1-8.8-36.7 0-19.8 2.9-31.3 8.8-36.8 2.5-2.2 5.5-3.4 8.8-3.9v-1C96.3 2.9 82.4 21.1 82.4 41.9c0 21.3 14.7 38.9 33.5 41.5v-.8zM126 .3v.9c3.4.5 6.4 1.7 9 3.9 5.9 5.5 8.7 17 8.7 36.8 0 22.6-2.8 31.3-8.7 36.7-2.6 2.2-5.5 3.5-9 4v.8c18.9-2.7 33.5-20.2 33.5-41.5C159.5 20.5 144.9 3 126 .3M399.9 83.4c.4-2 3.1-4.3 6.5-4.3 4.4 0 9.1 3.1 15.4 4.2v-.8c-13.1-2.6-21.9-17-21.9-25.2h-.9v26.1h.9zM427.3 33.6c-14.8-5-21.7-10.6-21.7-18.6 0-7.2 5.7-13.2 13.9-14.1V0c-11.1 1.2-20.3 11.5-20.3 24.2 0 13.4 8.7 19.1 19.8 22.9 18.2 6.3 25.7 9.8 25.7 20.7 0 6.2-5.2 12.8-15.1 14.7v.8c14.9-2.6 22.7-15.4 22.7-25.4-.1-13.8-9.8-19.1-25-24.3M445 20.2V.2h-.9c-.2 1.2-1.3 2.7-4.9 2.7-2.7 0-5-.8-7.5-1.6v1.2c6.9 3 12.3 9.8 12.3 17.7h1zM470.8 83.4c.4-2 3.1-4.3 6.5-4.3 4.4 0 9.1 3.1 15.4 4.2v-.8c-13.1-2.6-21.9-17-21.9-25.2h-.8v26.1h.8zM498.3 33.6c-14.9-5-21.7-10.6-21.7-18.6 0-7.2 5.7-13.2 13.9-14.1V0c-11.1 1.2-20.3 11.5-20.3 24.2 0 13.4 8.7 19.1 19.8 22.9 18.2 6.3 25.7 9.8 25.7 20.7 0 6.2-5.2 12.8-15.2 14.7v.8c14.9-2.6 22.7-15.4 22.7-25.4-.1-13.8-9.7-19.1-24.9-24.3M516 20.2V.2h-1c-.2 1.2-1.3 2.7-4.8 2.7-2.7 0-5-.8-7.5-1.6v1.2c6.9 3 12.3 9.8 12.3 17.7h1zM178.4 83.4c.4-2 3.1-4.3 6.5-4.3 4.4 0 9.1 3.1 15.4 4.2v-.8c-13.1-2.6-21.9-17-21.9-25.2h-.8v26.1h.8zM205.8 33.6C191 28.6 184.1 23 184.1 15c0-7.2 5.7-13.2 13.9-14.1V0c-11.1 1.2-20.3 11.5-20.3 24.2 0 13.4 8.7 19.1 19.8 22.9 18.2 6.3 25.7 9.8 25.7 20.7 0 6.2-5.2 12.8-15.1 14.7v.8c14.9-2.6 22.7-15.4 22.7-25.4-.1-13.8-9.8-19.1-25-24.3M223.5 20.2V.2h-.9c-.2 1.2-1.3 2.7-4.8 2.7-2.7 0-5-.8-7.5-1.6v1.2c6.9 3 12.3 9.8 12.3 17.7h.9zM249.3 83.4c.4-2 3.1-4.3 6.5-4.3 4.4 0 9.1 3.1 15.4 4.2v-.8c-13.1-2.6-21.9-17-21.9-25.2h-.8v26.1h.8zM276.8 33.6c-14.9-5-21.7-10.6-21.7-18.6 0-7.2 5.7-13.2 13.9-14.1V0c-11.1 1.2-20.3 11.5-20.3 24.2 0 13.4 8.7 19.1 19.8 22.9 18.2 6.3 25.7 9.8 25.7 20.7 0 6.2-5.2 12.8-15.2 14.7v.8c14.9-2.6 22.7-15.4 22.7-25.4-.1-13.8-9.7-19.1-24.9-24.3M294.5 20.2V.2h-.9c-.2 1.2-1.3 2.7-4.8 2.7-2.7 0-5-.8-7.5-1.6v1.2c6.9 3 12.3 9.8 12.3 17.7h.9zM778.2 83.4c.4-2 3.1-4.3 6.5-4.3 4.4 0 9.1 3.1 15.4 4.2v-.8c-13.1-2.6-21.9-17-21.9-25.2h-.8v26.1h.8zM805.6 33.6c-14.9-5-21.7-10.6-21.7-18.6 0-7.2 5.7-13.2 13.9-14.1V0c-11.1 1.2-20.3 11.5-20.3 24.2 0 13.4 8.7 19.1 19.8 22.9 18.2 6.3 25.7 9.8 25.7 20.7 0 6.2-5.2 12.8-15.1 14.7v.8c14.9-2.6 22.7-15.4 22.7-25.4-.1-13.8-9.8-19.1-25-24.3M823.3 20.2V.2h-.9c-.2 1.2-1.3 2.7-4.8 2.7-2.7 0-5-.8-7.5-1.6v1.2c6.9 3 12.3 9.8 12.3 17.7h.9zM625.2 82.6c-3.4-.6-6.4-1.8-8.8-4-5.9-5.4-8.8-14.1-8.8-36.7 0-19.8 2.9-31.3 8.8-36.8 2.5-2.2 5.5-3.4 8.8-3.9v-1c-19.7 2.7-33.5 20.9-33.5 41.7 0 21.3 14.7 38.9 33.5 41.5v-.8zM635.2.3v.9c3.4.5 6.4 1.7 9 3.9 5.9 5.5 8.7 17 8.7 36.8 0 22.6-2.8 31.3-8.7 36.7-2.6 2.2-5.5 3.5-9 4v.8c18.9-2.7 33.5-20.2 33.5-41.5 0-21.4-14.5-38.9-33.5-41.6M363.2 55.3V26.2h-.9c0 7.8-5.9 14.1-15.3 14.1h-4.3V1.8h-25.8v.9H328.1v78.2h-11.2v.9h25.8V41.2h4.3c9.4 0 15.3 6.4 15.3 14.1h.9zM384.9 57.2h-.9c0 11.6-7.8 23.7-27.2 23.7h-4v.9H385V57.2zM378.7 24.2h-.9c0-10.5-6.5-21.4-21.3-21.4h-3.6v-1h25.9v22.4zM427.3 321.9c0 3.4 2.9 6.1 6.4 6.1 3.5 0 6.4-2.7 6.4-6.1 0-3.4-2.9-6.1-6.4-6.1-3.5 0-6.4 2.7-6.4 6.1M575.6 1.8h-37v.9h11.1v78.2h-11.1v.9h37v-.9h-11.1V2.7h11.1zM65.6 16.7c-1.4-3-3.5-5.6-6.3-7.9-2.8-2.2-6.3-4-10.4-5.3-3.9-1.2-8.3-1.8-13.2-1.9v.9c5.2.2 9.3 2.1 12.5 5.7 3.3 3.9 5 9.9 5 18.1 0 8.2-1.3 13.9-3.8 17.3-2.5 3.4-6.6 5-12.1 5h-1.6v.9h1.6c4.7 0 8.9-.6 12.6-1.7 3.7-1.1 6.9-2.7 9.6-4.8 2.6-2 4.7-4.5 6.1-7.4 1.4-2.9 2.1-6 2.1-9.4.1-3.3-.7-6.5-2.1-9.5M217 124.1v.9h11.6l55.7 80.8h1.1v-22.7l-40.3-59zM273.2 124.1v.9h11.2v48.6l1 1.6V125h11.2v-.9z"/><path class="st0" d="M229.2 133.8l-1.1-1.5v71.1H217v1h23.3v-1h-11.1zM683.2 1.8v.9h11.6l55.6 80.8h1.2V60.9L711.3 1.8zM739.4 1.8v.9h11.2v48.6l1 1.6V2.7h11.2v-.9z"/><path class="st0" d="M695.4 11.5l-1.1-1.5v71.2h-11.1v.9h23.3v-.9h-11.1z"/></svg>