<?xml version="1.0" encoding="utf-8"?>
<!-- Generator: Adobe Illustrator 19.1.0, SVG Export Plug-In . SVG Version: 6.00 Build 0)  -->
<svg version="1.1" id="Layer_1" xmlns="http://www.w3.org/2000/svg" xmlns:xlink="http://www.w3.org/1999/xlink" x="0px" y="0px"
	 viewBox="0 0 830.5 328.2" style="enable-background:new 0 0 830.5 328.2;" xml:space="preserve">
<style type="text/css">
	.st0{fill:#B2876F;}
</style>
<g>
	<path class="st0" d="M520.6,158.8c-0.9,1.2-1.7,2.5-2.4,4c-1.5,3.2-2.3,6.6-2.3,10.4c0,3.8,0.6,7.4,1.7,10.9
		c1.1,3.5,2.7,6.5,4.9,9.2c2.2,2.6,4.9,4.8,8.1,6.3c3.2,1.6,6.9,2.4,11.1,2.4c1.6,0,3-0.1,4.2-0.3l1.3,1.3c-5,2.3-10.4,3.4-16,3.4
		c-3.8,0-7.3-0.6-10.5-1.7c-3.2-1.1-6-2.7-8.4-4.8c-2.4-2.1-4.2-4.5-5.5-7.4c-1.3-2.9-2-6-2-9.4c0-5.9,1.7-11.1,5-15.7
		c2.6-3.6,6-6.9,10.4-10.1L520.6,158.8z"/>
	<path class="st0" d="M563.1,186.9c4.1-9.2,4.6-18.2,4.6-25.8l-0.9,0c0,7.3-0.5,16-4.3,24.8C562.7,186.3,562.9,186.6,563.1,186.9"/>
	<path class="st0" d="M536.5,147.9c1.1,3.5,2.5,7.1,4.3,10.8c1.7,3.7,3.7,7.4,5.8,11.2c2.1,3.7,4.4,7.4,6.7,11
		c2.3,3.6,4.6,7,6.8,10.2l0.6,0.9c0.5,0.8,0.8,1.3,1.1,1.6c0.2,0.3,0.6,0.9,1.1,1.6c1.3,2,3,3.6,4.9,5c1.9,1.4,3.7,2,5.4,2
		c0.6,0,1.3-0.1,1.9-0.3c1.4-0.5,2.6-1.3,3.6-2.3c0.9-1,1.6-2.1,2-3.2l0.7,0.6c-0.6,1.5-1.6,2.8-2.8,4c-1.3,1.1-2.7,2.1-4.3,2.8
		c-1.6,0.8-3.3,1.3-5,1.8c-1.8,0.4-3.5,0.6-5.3,0.6c-4.5,0-8.8-1.8-12.8-5.4c0,0-3-3.1-4.1-4.4c-1.1-1.4-2.2-2.9-3.3-4.8
		c-1.7-2.7-3.6-5.6-5.4-8.7c-1.9-3.1-3.7-6.1-5.4-9.2c-1.7-3.1-3.4-6.2-4.9-9.3c-1.5-3.1-4-9.9-4-9.9c-1.3-4.1-2-7.7-2-11
		c0-3.2,0.4-6.2,1.3-8.8c0.9-2.6,2-4.9,3.5-6.7c1.5-1.8,3.2-3.3,5.3-4.2c2.1-1,4.3-1.5,6.6-1.5c4,0,6.8,0.9,8.4,2.7
		c1.6,1.8,2.4,4.2,2.4,7.2c0,2.7-1.1,5.5-3.3,8.3c-1.4,1.9-3.4,3.6-5.7,5.3l-0.3-1c1.9-1.4,3.6-2.8,5-4.4c2.3-2.6,3.4-5.3,3.4-8.1
		c0-2.6-0.7-4.7-2-6.2c-1.3-1.5-3.2-2.3-5.4-2.3c-2.1,0-3.8,0.9-5.1,2.5c-1.3,1.7-2,4.4-2,8c0,4,0.7,8.3,2.1,12.9L536.5,147.9z"/>
	<path class="st0" d="M112,327.3c-3.4-0.6-6.3-1.8-8.8-4c-5.9-5.4-8.8-14.1-8.8-36.7c0-19.8,2.9-31.3,8.8-36.8
		c2.5-2.2,5.5-3.4,8.8-3.9v-0.9c-19.7,2.7-33.5,20.9-33.5,41.7c0,21.3,14.7,38.9,33.5,41.5V327.3z"/>
	<path class="st0" d="M122,245v0.9c3.4,0.5,6.4,1.7,9,3.9c5.9,5.5,8.7,17,8.7,36.8c0,22.6-2.8,31.3-8.7,36.7c-2.6,2.2-5.5,3.5-9,4
		v0.8c18.9-2.7,33.5-20.2,33.5-41.5C155.5,265.2,141,247.7,122,245"/>
	<polygon class="st0" points="221.9,246.5 221.9,247.4 232.9,247.4 233.8,247.4 214.5,302.1 214.9,303.3 234.8,247.4 236,247.4 
		245.8,247.4 245.8,246.5 	"/>
	<polygon class="st0" points="205,328.2 169.3,247.4 159.2,247.4 159.2,246.5 197.6,246.5 197.6,247.4 185.2,247.4 184.6,247.4 
		212.6,309.8 206,328.2 	"/>
	<path class="st0" d="M301.3,300v-29.1h-0.9c0,7.8-5.9,14.1-15.3,14.1h-4.3l0-38.5h-25.8v0.9h10.4h0.8v78.2h-11.2v0.9h25.8v-40.6
		h4.3c9.4,0,15.3,6.4,15.3,14.1H301.3z"/>
	<path class="st0" d="M323,301.9H322c0,11.6-7.8,23.7-27.2,23.7h-4v0.9H323V301.9z"/>
	<path class="st0" d="M316.7,268.9h-0.9c0-10.5-6.5-21.4-21.3-21.4h-3.6v-0.9l25.9,0V268.9z"/>
	<path class="st0" d="M38.2,326.5v-0.9h3.2c17.9,0,24.9-13.2,24.9-24.7h0.8v25.6H38.2z"/>
	<polygon class="st0" points="0,246.5 0,247.4 11.1,247.4 11.1,325.6 0,325.6 0,326.5 25.8,326.5 25.8,247.4 36.9,247.4 36.9,246.5 
			"/>
	<polygon class="st0" points="0,81.6 0,80.7 11.1,80.7 11.1,2.5 0,2.5 0,1.6 25.8,1.6 25.8,80.7 36.9,80.7 36.9,81.6 	"/>
	<path class="st0" d="M373.6,246.5h-2.1v0.9h2.1c5.3,0,10.1,1,13.8,4.2c6,5.2,8.8,16.2,8.8,35c0,21.6-2.8,29.7-8.8,35
		c-3.7,3.1-8.5,4.1-13.8,4.1h-2.1v0.9h2.1c21.1,0,38.4-17.9,38.4-40C412,264.5,394.7,246.5,373.6,246.5"/>
	<polygon class="st0" points="335.7,246.5 335.7,247.4 346.8,247.4 346.8,325.6 335.7,325.6 335.7,326.5 361.4,326.5 361.4,246.5 	
		"/>
	<path class="st0" d="M353,177.6v-29.1h-0.9c0,7.8-5.9,14.1-15.3,14.1h-4.3l0-38.5h-25.8v0.9H317h0.8v78.2h-11.2v0.9h25.8v-40.6h4.3
		c9.4,0,15.3,6.4,15.3,14.1H353z"/>
	<path class="st0" d="M374.7,179.5h-0.9c0,11.6-7.8,23.7-27.2,23.7h-4v0.9h32.2V179.5z"/>
	<path class="st0" d="M368.5,146.5h-0.9c0-10.5-6.5-21.4-21.3-21.4h-3.6v-0.9l25.9,0V146.5z"/>
	<path class="st0" d="M35,204.9c-3.4-0.6-6.4-1.8-8.8-4c-5.9-5.4-8.8-14.1-8.8-36.7c0-19.8,2.9-31.3,8.8-36.8
		c2.5-2.2,5.5-3.4,8.8-3.9v-0.9c-19.7,2.7-33.5,20.9-33.5,41.7c0,21.3,14.7,38.9,33.5,41.5V204.9z"/>
	<path class="st0" d="M45.1,122.6v0.9c3.4,0.5,6.4,1.7,9,3.9c5.9,5.5,8.7,17,8.7,36.8c0,22.6-2.8,31.3-8.7,36.7
		c-2.6,2.2-5.5,3.5-9,4v0.8c18.9-2.7,33.5-20.2,33.5-41.5C78.6,142.8,64,125.2,45.1,122.6"/>
	<path class="st0" d="M425.3,124.1h-2.1v0.9h2.1c5.3,0,10.1,1,13.8,4.2c6,5.2,8.8,16.2,8.8,35c0,21.6-2.8,29.7-8.8,35
		c-3.7,3.1-8.5,4.1-13.8,4.1h-2.1v0.9h2.1c21.1,0,38.4-17.9,38.4-40C463.8,142.1,446.4,124.1,425.3,124.1"/>
	<polygon class="st0" points="126.4,205.8 133.2,186.9 108,125 119.4,125 119.4,124.1 80.8,124.1 80.8,125 92.3,125 125.4,205.8 	
		"/>
	<polygon class="st0" points="186.9,124.1 186.9,125 197.9,125 198.8,125 179.5,179.7 179.9,180.9 199.8,125 201,125 210.8,125 
		210.8,124.1 	"/>
	<polygon class="st0" points="170,205.8 139,125 128.9,125 128.9,124.1 167.3,124.1 167.3,125 155,125 154.3,125 177.6,187.4 
		171,205.8 	"/>
	<polygon class="st0" points="144.7,152.2 135,179.6 135.4,180.6 145.1,153.4 	"/>
	<polygon class="st0" points="387.5,124.1 387.5,125 398.6,125 398.6,203.2 387.5,203.2 387.5,204.1 413.2,204.1 413.2,124.1 	"/>
	<path class="st0" d="M115.9,82.6c-3.4-0.6-6.4-1.8-8.8-4c-5.9-5.4-8.8-14.1-8.8-36.7c0-19.8,2.9-31.3,8.8-36.8
		c2.5-2.2,5.5-3.4,8.8-3.9V0.2C96.3,2.9,82.4,21.1,82.4,41.9c0,21.3,14.7,38.9,33.5,41.5V82.6z"/>
	<path class="st0" d="M126,0.3v0.9c3.4,0.5,6.4,1.7,9,3.9c5.9,5.5,8.7,17,8.7,36.8c0,22.6-2.8,31.3-8.7,36.7c-2.6,2.2-5.5,3.5-9,4
		v0.8c18.9-2.7,33.5-20.2,33.5-41.5C159.5,20.5,144.9,3,126,0.3"/>
	<path class="st0" d="M399.9,83.4c0.4-2,3.1-4.3,6.5-4.3c4.4,0,9.1,3.1,15.4,4.2v-0.8c-13.1-2.6-21.9-17-21.9-25.2H399v26.1H399.9z"
		/>
	<path class="st0" d="M427.3,33.6C412.5,28.6,405.6,23,405.6,15c0-7.2,5.7-13.2,13.9-14.1V0c-11.1,1.2-20.3,11.5-20.3,24.2
		c0,13.4,8.7,19.1,19.8,22.9c18.2,6.3,25.7,9.8,25.7,20.7c0,6.2-5.2,12.8-15.1,14.7v0.8c14.9-2.6,22.7-15.4,22.7-25.4
		C452.2,44.1,442.5,38.8,427.3,33.6"/>
	<path class="st0" d="M445,20.2v-20h-0.9c-0.2,1.2-1.3,2.7-4.9,2.7c-2.7,0-5-0.8-7.5-1.6v1.2c6.9,3,12.3,9.8,12.3,17.7H445z"/>
	<path class="st0" d="M470.8,83.4c0.4-2,3.1-4.3,6.5-4.3c4.4,0,9.1,3.1,15.4,4.2v-0.8c-13.1-2.6-21.9-17-21.9-25.2H470v26.1H470.8z"
		/>
	<path class="st0" d="M498.3,33.6C483.4,28.6,476.6,23,476.6,15c0-7.2,5.7-13.2,13.9-14.1V0c-11.1,1.2-20.3,11.5-20.3,24.2
		c0,13.4,8.7,19.1,19.8,22.9c18.2,6.3,25.7,9.8,25.7,20.7c0,6.2-5.2,12.8-15.2,14.7v0.8c14.9-2.6,22.7-15.4,22.7-25.4
		C523.1,44.1,513.5,38.8,498.3,33.6"/>
	<path class="st0" d="M516,20.2v-20H515c-0.2,1.2-1.3,2.7-4.8,2.7c-2.7,0-5-0.8-7.5-1.6v1.2c6.9,3,12.3,9.8,12.3,17.7H516z"/>
	<path class="st0" d="M178.4,83.4c0.4-2,3.1-4.3,6.5-4.3c4.4,0,9.1,3.1,15.4,4.2v-0.8c-13.1-2.6-21.9-17-21.9-25.2h-0.8v26.1H178.4z
		"/>
	<path class="st0" d="M205.8,33.6C191,28.6,184.1,23,184.1,15c0-7.2,5.7-13.2,13.9-14.1V0c-11.1,1.2-20.3,11.5-20.3,24.2
		c0,13.4,8.7,19.1,19.8,22.9c18.2,6.3,25.7,9.8,25.7,20.7c0,6.2-5.2,12.8-15.1,14.7v0.8c14.9-2.6,22.7-15.4,22.7-25.4
		C230.7,44.1,221,38.8,205.8,33.6"/>
	<path class="st0" d="M223.5,20.2v-20h-0.9c-0.2,1.2-1.3,2.7-4.8,2.7c-2.7,0-5-0.8-7.5-1.6v1.2c6.9,3,12.3,9.8,12.3,17.7H223.5z"/>
	<path class="st0" d="M249.3,83.4c0.4-2,3.1-4.3,6.5-4.3c4.4,0,9.1,3.1,15.4,4.2v-0.8c-13.1-2.6-21.9-17-21.9-25.2h-0.8v26.1H249.3z
		"/>
	<path class="st0" d="M276.8,33.6C261.9,28.6,255.1,23,255.1,15c0-7.2,5.7-13.2,13.9-14.1V0c-11.1,1.2-20.3,11.5-20.3,24.2
		c0,13.4,8.7,19.1,19.8,22.9c18.2,6.3,25.7,9.8,25.7,20.7c0,6.2-5.2,12.8-15.2,14.7v0.8c14.9-2.6,22.7-15.4,22.7-25.4
		C301.6,44.1,292,38.8,276.8,33.6"/>
	<path class="st0" d="M294.5,20.2v-20h-0.9c-0.2,1.2-1.3,2.7-4.8,2.7c-2.7,0-5-0.8-7.5-1.6v1.2c6.9,3,12.3,9.8,12.3,17.7H294.5z"/>
	<path class="st0" d="M778.2,83.4c0.4-2,3.1-4.3,6.5-4.3c4.4,0,9.1,3.1,15.4,4.2v-0.8c-13.1-2.6-21.9-17-21.9-25.2h-0.8v26.1H778.2z
		"/>
	<path class="st0" d="M805.6,33.6C790.7,28.6,783.9,23,783.9,15c0-7.2,5.7-13.2,13.9-14.1V0c-11.1,1.2-20.3,11.5-20.3,24.2
		c0,13.4,8.7,19.1,19.8,22.9c18.2,6.3,25.7,9.8,25.7,20.7c0,6.2-5.2,12.8-15.1,14.7v0.8c14.9-2.6,22.7-15.4,22.7-25.4
		C830.5,44.1,820.8,38.8,805.6,33.6"/>
	<path class="st0" d="M823.3,20.2v-20h-0.9c-0.2,1.2-1.3,2.7-4.8,2.7c-2.7,0-5-0.8-7.5-1.6v1.2c6.9,3,12.3,9.8,12.3,17.7H823.3z"/>
	<path class="st0" d="M625.2,82.6c-3.4-0.6-6.4-1.8-8.8-4c-5.9-5.4-8.8-14.1-8.8-36.7c0-19.8,2.9-31.3,8.8-36.8
		c2.5-2.2,5.5-3.4,8.8-3.9V0.2c-19.7,2.7-33.5,20.9-33.5,41.7c0,21.3,14.7,38.9,33.5,41.5V82.6z"/>
	<path class="st0" d="M635.2,0.3v0.9c3.4,0.5,6.4,1.7,9,3.9c5.9,5.5,8.7,17,8.7,36.8c0,22.6-2.8,31.3-8.7,36.7c-2.6,2.2-5.5,3.5-9,4
		v0.8c18.9-2.7,33.5-20.2,33.5-41.5C668.7,20.5,654.2,3,635.2,0.3"/>
	<path class="st0" d="M363.2,55.3V26.2h-0.9c0,7.8-5.9,14.1-15.3,14.1h-4.3l0-38.5h-25.8v0.9h10.4h0.8v78.2h-11.2v0.9h25.8V41.2h4.3
		c9.4,0,15.3,6.4,15.3,14.1H363.2z"/>
	<path class="st0" d="M384.9,57.2H384c0,11.6-7.8,23.7-27.2,23.7h-4v0.9h32.2V57.2z"/>
	<path class="st0" d="M378.7,24.2h-0.9c0-10.5-6.5-21.4-21.3-21.4h-3.6V1.8l25.9,0V24.2z"/>
	<path class="st0" d="M427.3,321.9c0,3.4,2.9,6.1,6.4,6.1c3.5,0,6.4-2.7,6.4-6.1c0-3.4-2.9-6.1-6.4-6.1
		C430.2,315.8,427.3,318.5,427.3,321.9"/>
	<polygon class="st0" points="575.6,1.8 575.6,1.8 549.7,1.8 538.6,1.8 538.6,2.7 549.7,2.7 549.7,80.9 538.6,80.9 538.6,80.9 
		538.6,81.8 564.5,81.8 575.6,81.8 575.6,80.9 564.5,80.9 564.5,2.7 575.6,2.7 575.6,2.7 	"/>
	<path class="st0" d="M65.6,16.7c-1.4-3-3.5-5.6-6.3-7.9c-2.8-2.2-6.3-4-10.4-5.3c-3.9-1.2-8.3-1.8-13.2-1.9v0.9
		c5.2,0.2,9.3,2.1,12.5,5.7c3.3,3.9,5,9.9,5,18.1c0,8.2-1.3,13.9-3.8,17.3c-2.5,3.4-6.6,5-12.1,5c-0.5,0-1.1,0-1.6,0v0.9
		c0.5,0,1,0,1.6,0c4.7,0,8.9-0.6,12.6-1.7c3.7-1.1,6.9-2.7,9.6-4.8c2.6-2,4.7-4.5,6.1-7.4c1.4-2.9,2.1-6,2.1-9.4
		C67.8,22.9,67,19.7,65.6,16.7"/>
	<polygon class="st0" points="217,124.1 217,125 228.6,125 284.3,205.8 285.4,205.8 285.4,183.1 245.1,124.1 	"/>
	<polygon class="st0" points="273.2,124.1 273.2,125 284.4,125 284.4,173.6 285.4,175.2 285.4,125 296.6,125 296.6,124.1 	"/>
	<polygon class="st0" points="229.2,133.8 228.1,132.3 228.1,203.4 217,203.4 217,204.4 240.3,204.4 240.3,203.4 229.2,203.4 	"/>
	<polygon class="st0" points="683.2,1.8 683.2,2.7 694.8,2.7 750.4,83.5 751.6,83.5 751.6,60.9 711.3,1.8 	"/>
	<polygon class="st0" points="739.4,1.8 739.4,2.7 750.6,2.7 750.6,51.3 751.6,52.9 751.6,2.7 762.8,2.7 762.8,1.8 	"/>
	<polygon class="st0" points="695.4,11.5 694.3,10 694.3,81.2 683.2,81.2 683.2,82.1 706.5,82.1 706.5,81.2 695.4,81.2 	"/>
</g>
</svg>
